# xmcd
#
# Track frame offsets: 
#        150
#        15964
#        33342
#        48925
#        62280
#        71118
#        88852
#        103587
#        112013
#        133009
#        150020
#        160578
#
# Disc length: 2317 seconds
#
# Revision: 0
# Processed by: cddbd v1.5.2PL0 Copyright (c) Steve Scherf et al.
# Submitted via: ExactAudioCopy v1.3
#
DISCID=88090b0c
DTITLE=Magic Sam - Give Me Time
DYEAR=1991
DGENRE=Chicago Blues
TTITLE0=Give Me Time
TTITLE1=You Belong To Me
TTITLE2=That's Why I'm Crying
TTITLE3=You're So Fine
TTITLE4=Come Into My Arms
TTITLE5=I Can't Quit You Baby
TTITLE6=Sweet Little Angel
TTITLE7=That's All I Need
TTITLE8=What Have I Done Wrong
TTITLE9=Baby, You Torture My Soul
TTITLE10=I'm So Glad
TTITLE11=Shake A Hand
EXTD=
EXTT0=
EXTT1=
EXTT2=
EXTT3=
EXTT4=
EXTT5=
EXTT6=
EXTT7=
EXTT8=
EXTT9=
EXTT10=
EXTT11=
PLAYORDER=
